<svg xmlns="http://www.w3.org/2000/svg" viewBox="0 0 1600 900"><defs><linearGradient id="bg" x1="0" y1="0" x2="1" y2="1"><stop offset="0" stop-color="#121826"/><stop offset="1" stop-color="#1e2738"/></linearGradient><radialGradient id="glow" cx="1250" cy="150" r="700" gradientUnits="userSpaceOnUse"><stop offset="0" stop-color="#22c55e" stop-opacity=".35"/><stop offset="1" stop-color="#22c55e" stop-opacity="0"/></radialGradient></defs><rect width="1600" height="900" fill="url(#bg)"/><rect width="1600" height="900" fill="url(#glow)"/><ellipse cx="1000" cy="770" rx="300" ry="16" fill="#000" opacity=".25"/><g fill="#475569"><rect x="840" y="600" width="440" height="34" rx="12"/><rect x="880" y="634" width="26" height="126"/><rect x="1214" y="634" width="26" height="126"/></g><g fill="none" stroke="#f1f5f9" stroke-width="34" stroke-linecap="round" stroke-linejoin="round"><polyline points="760,745 820,745"/><polyline points="780,745 820,610 900,470"/><polyline points="900,470 970,584 880,584"/><polyline points="900,470 1130,450"/><polyline points="1130,450 1150,584"/><polyline points="1130,450 1040,390 1050,515"/></g><circle cx="1205" cy="425" r="46" fill="#f1f5f9"/><g fill="#22c55e"><rect x="1043" y="495" width="14" height="90" rx="7"/><rect x="1022" y="481" width="56" height="28" rx="8"/><rect x="1022" y="571" width="56" height="28" rx="8"/></g><line x1="160" y1="766" x2="1440" y2="766" stroke="#334155" stroke-width="6" stroke-linecap="round"/></svg>
